<svg width="2541" height="1702" viewBox="0 0 2541 1702" fill="none" xmlns="http://www.w3.org/2000/svg">
<path d="M527.967 125.484C527.967 194.786 471.786 250.967 402.484 250.967C333.181 250.967 277 194.786 277 125.484C277 56.181 333.181 0 402.484 0C471.786 0 527.967 56.181 527.967 125.484Z" fill="#EAE6FF"/>
<path d="M2540.38 1465.93C2540.38 1596.31 2434.69 1702 2304.31 1702C2173.94 1702 2068.25 1596.31 2068.25 1465.93C2068.25 1335.56 2173.94 1229.87 2304.31 1229.87C2434.69 1229.87 2540.38 1335.56 2540.38 1465.93Z" fill="#EAE6FF"/>
<path d="M546.984 1237.59C546.984 1388.39 424.736 1510.64 273.936 1510.64C123.136 1510.64 0.887817 1388.39 0.887817 1237.59C0.887817 1086.79 123.136 964.542 273.936 964.542C424.736 964.542 546.984 1086.79 546.984 1237.59Z" fill="#EAE6FF"/>
<path d="M2463.75 256.721C2463.75 329.693 2404.59 388.847 2331.62 388.847C2258.65 388.847 2199.49 329.693 2199.49 256.721C2199.49 183.75 2258.65 124.595 2331.62 124.595C2404.59 124.595 2463.75 183.75 2463.75 256.721Z" fill="#EAE6FF"/>
<path d="M2244.42 595.663C2244.42 629.716 2216.81 657.322 2182.76 657.322C2148.7 657.322 2121.1 629.716 2121.1 595.663C2121.1 561.61 2148.7 534.004 2182.76 534.004C2216.81 534.004 2244.42 561.61 2244.42 595.663Z" fill="#EAE6FF"/>
</svg>
