<svg width="696" height="2448" viewBox="0 0 696 2448" fill="none" xmlns="http://www.w3.org/2000/svg">
<path d="M212.049 175.757C172.717 89.8821 119.135 58.9673 0 0V2448H696C696 2448 498.368 2084.92 487.371 1824.55C475.494 1543.34 653.97 1322.58 584.275 1049.96C536.708 863.899 513.592 883.936 424.668 761.422C311.585 605.622 251.381 261.631 212.049 175.757Z" fill="#FB6BB0"/>
<path d="M131.676 281.096C90.4855 164.473 0 88.1646 0 88.1646V2448H448.039C448.039 2448 343.729 2091.82 351.135 1834.85C358.02 1595.98 467.335 1454.57 413.838 1221.71C371.944 1039.36 278 991.321 214.899 815.237C152.488 641.075 193.289 455.545 131.676 281.096Z" fill="#42C2EE"/>
</svg>
