<svg width="45" height="45" viewBox="0 0 45 45" fill="none" xmlns="http://www.w3.org/2000/svg">
<path d="M36.4119 5.96551H30.8357V3.19751H28.0476V5.96551H16.8952V3.19751H14.1071V5.96551H8.53089C7.79179 5.96661 7.08326 6.25859 6.56063 6.77745C6.038 7.29631 5.7439 7.99972 5.7428 8.73351V36.4135C5.7439 37.1473 6.038 37.8507 6.56063 38.3695C7.08326 38.8884 7.79179 39.1804 8.53089 39.1815H36.4119C37.151 39.1804 37.8595 38.8884 38.3821 38.3695C38.9048 37.8507 39.1989 37.1473 39.2 36.4135V8.73351C39.1989 7.99972 38.9048 7.29631 38.3821 6.77745C37.8595 6.25859 37.151 5.96661 36.4119 5.96551ZM8.53089 8.73351H14.1071V11.5015H16.8952V8.73351H28.0476V11.5015H30.8357V8.73351H36.4119V14.2695H8.53089V8.73351ZM8.53089 17.0375H15.5011V25.3415H8.53089V17.0375ZM26.6535 36.4135H18.2892V28.1095H26.6535V36.4135ZM26.6535 25.3415H18.2892V17.0375H26.6535V25.3415ZM29.4416 36.4135V28.1095H36.4119L36.4133 36.4135H29.4416Z" fill="#27066F"/>
</svg>
