<svg width="30" height="33" viewBox="0 0 30 33" fill="none" xmlns="http://www.w3.org/2000/svg">
<path d="M24.375 4.125H20.625V2.0625H18.75V4.125H11.25V2.0625H9.375V4.125H5.625C5.12795 4.12582 4.65147 4.34338 4.3 4.73C3.94853 5.11661 3.75074 5.64074 3.75 6.1875V26.8125C3.75074 27.3593 3.94853 27.8834 4.3 28.27C4.65147 28.6566 5.12795 28.8742 5.625 28.875H24.375C24.8721 28.8742 25.3485 28.6566 25.7 28.27C26.0515 27.8834 26.2493 27.3593 26.25 26.8125V6.1875C26.2493 5.64074 26.0515 5.11661 25.7 4.73C25.3485 4.34338 24.8721 4.12582 24.375 4.125ZM5.625 6.1875H9.375V8.25H11.25V6.1875H18.75V8.25H20.625V6.1875H24.375V10.3125H5.625V6.1875ZM5.625 12.375H10.3125V18.5625H5.625V12.375ZM17.8125 26.8125H12.1875V20.625H17.8125V26.8125ZM17.8125 18.5625H12.1875V12.375H17.8125V18.5625ZM19.6875 26.8125V20.625H24.375L24.3759 26.8125H19.6875Z" fill="black"/>
</svg>
