<?xml version="1.0" encoding="UTF-8"?>
<svg version="1.1" xmlns="http://www.w3.org/2000/svg" width="778" height="778">
<path d="M0 0 C1.81075124 0.61837605 3.62210696 1.23498449 5.434021 1.84994507 C10.20497521 3.47443167 14.96748353 5.1223925 19.72851562 6.7756958 C24.4210125 8.40087051 29.12088854 10.00436591 33.8203125 11.609375 C41.30037644 14.16705102 48.77609843 16.73702347 56.24853516 19.31689453 C67.04118982 23.04263175 77.84279251 26.74181218 88.6484375 30.4296875 C89.49903873 30.72004631 90.34963997 31.01040512 91.226017 31.30956268 C106.32241158 36.46189594 121.4287969 41.58442361 136.540802 46.69076538 C143.50306967 49.04334793 150.46444811 51.39856012 157.42578125 53.75390625 C158.46229608 54.1045901 158.46229608 54.1045901 159.5197506 54.46235847 C172.15880387 58.73884966 184.79216549 63.03193056 197.421875 67.3359375 C214.3340428 73.09924012 231.25126789 78.84745688 248.171875 84.5859375 C265.77874535 90.55717937 283.38325303 96.53527328 300.984375 102.5234375 C319.83293189 108.93587228 338.6887073 115.32684075 357.546875 121.7109375 C377.63472371 128.51132085 397.71774043 135.32560619 417.79150391 142.16748047 C427.95489796 145.63096365 438.12089989 149.0866278 448.29055023 152.53170013 C450.21019489 153.18201885 452.12979281 153.83247531 454.04937744 154.48297119 C460.23606371 156.57938766 466.42312556 158.67468543 472.61083984 160.76806641 C483.55869004 164.47538676 494.49935649 168.18981343 505.359375 172.1484375 C505.359375 172.8084375 505.359375 173.4684375 505.359375 174.1484375 C506.349375 174.1484375 507.339375 174.1484375 508.359375 174.1484375 C508.359375 174.8084375 508.359375 175.4684375 508.359375 176.1484375 C508.9471875 176.40753906 509.535 176.66664063 510.140625 176.93359375 C516.9437453 180.65854166 520.3629954 187.35105401 522.640625 194.48828125 C525.5273303 205.17222857 522.8603858 214.29391194 519.375 224.52734375 C519.08344025 225.39914276 518.79188049 226.27094177 518.4914856 227.16915894 C517.53675388 230.01846437 516.57323265 232.86470754 515.609375 235.7109375 C514.92747836 237.73887291 514.24600776 239.76695161 513.56494141 241.79516602 C508.77232892 256.04752586 503.92268942 270.28068651 499.04931641 284.50561523 C493.88734718 299.57521177 488.77511283 314.66152696 483.66907501 329.75014114 C481.62096642 335.80232544 479.57240108 341.85435511 477.5234375 347.90625 C477.30079098 348.5638714 477.07814445 349.22149281 476.84875107 349.89904213 C472.6994376 362.15355381 468.53327733 374.40228179 464.359375 386.6484375 C458.17035275 404.80755067 452.01066408 422.97651781 445.859375 441.1484375 C439.03539808 461.30736352 432.19712417 481.46131492 425.33178711 501.60620117 C421.70086962 512.26190432 418.07837346 522.9204178 414.46484375 533.58203125 C413.83585175 535.43752594 413.83585175 535.43752594 413.19415283 537.33050537 C411.15879086 543.3350433 409.12430491 549.33987556 407.09130859 555.34521484 C405.23390152 560.8294678 403.36992579 566.31145288 401.50177002 571.79205322 C400.71205037 574.11226871 399.92455459 576.43324189 399.13885498 578.75482178 C397.92492822 582.33975988 396.70345894 585.92205149 395.48046875 589.50390625 C395.11131851 590.59915115 394.74216827 591.69439606 394.36183167 592.8228302 C394.01224899 593.8418895 393.66266632 594.86094879 393.30249023 595.91088867 C392.99883041 596.80410324 392.69517059 597.69731781 392.38230896 598.61759949 C391.27870843 601.34801443 390.03569743 603.72613398 388.359375 606.1484375 C387.699375 606.1484375 387.039375 606.1484375 386.359375 606.1484375 C386.359375 606.8084375 386.359375 607.4684375 386.359375 608.1484375 C385.699375 608.1484375 385.039375 608.1484375 384.359375 608.1484375 C384.359375 608.8084375 384.359375 609.4684375 384.359375 610.1484375 C383.699375 610.1484375 383.039375 610.1484375 382.359375 610.1484375 C382.359375 610.8084375 382.359375 611.4684375 382.359375 612.1484375 C372.7477088 619.39657923 363.22458372 621.33466407 351.359375 620.1484375 C344.77151923 618.68725749 338.42146392 616.30318501 332.0625 614.078125 C330.18448662 613.43733142 328.3058705 612.79830197 326.42669678 612.16091919 C321.47820437 610.47724413 316.5381377 608.77008661 311.59954834 607.05761719 C306.7260895 605.37208542 301.84523285 603.7083036 296.96484375 602.04296875 C289.22496048 599.39887325 281.48942255 596.74245572 273.75732422 594.07568359 C262.80591264 590.29883263 251.84628585 586.54636666 240.8828125 582.8046875 C240.03281551 582.51453011 239.18281853 582.22437271 238.30706406 581.92542267 C223.69899277 576.9394344 209.08253558 571.97854774 194.46051025 567.03363037 C187.84818003 564.79731557 181.23654827 562.55893789 174.625 560.3203125 C173.96634571 560.09730846 173.30769142 559.87430443 172.62907791 559.64454269 C160.24303095 555.45064948 147.86234086 551.24111973 135.484375 547.0234375 C118.63427025 541.28227011 101.77976342 535.5542112 84.921875 529.8359375 C83.75237305 529.43922852 82.58287109 529.04251953 81.37792969 528.63378906 C74.23305214 526.21023087 67.0880665 523.78699146 59.9430542 521.36383057 C49.28998756 517.7508779 38.63711805 514.13734415 27.984375 510.5234375 C26.82052277 510.12861176 25.65667053 509.73378601 24.45755005 509.32699585 C7.06729965 503.42725764 -10.32013166 497.51927019 -27.70574951 491.605896 C-43.16475617 486.34795842 -58.62642446 481.09791039 -74.08981323 475.85287476 C-83.44120935 472.68087618 -92.79228273 469.50792622 -102.14337158 466.33502197 C-105.66438558 465.14037576 -109.18546349 463.94591806 -112.70654297 462.75146484 C-118.41888714 460.81352626 -124.13083962 458.87443698 -129.8425293 456.93457031 C-131.95991895 456.21561963 -134.07742732 455.49701849 -136.19506836 454.77880859 C-148.37255556 450.64847885 -160.52738818 446.46383498 -172.640625 442.1484375 C-172.640625 441.4884375 -172.640625 440.8284375 -172.640625 440.1484375 C-173.630625 440.1484375 -174.620625 440.1484375 -175.640625 440.1484375 C-175.640625 439.4884375 -175.640625 438.8284375 -175.640625 438.1484375 C-176.52234375 437.75978516 -176.52234375 437.75978516 -177.421875 437.36328125 C-184.2249953 433.63833334 -187.6442454 426.94582099 -189.921875 419.80859375 C-192.8085803 409.12464643 -190.1416358 400.00296306 -186.65625 389.76953125 C-186.36469025 388.89773224 -186.07313049 388.02593323 -185.7727356 387.12771606 C-184.81800388 384.27841063 -183.85448265 381.43216746 -182.890625 378.5859375 C-182.20872836 376.55800209 -181.52725776 374.52992339 -180.84619141 372.50170898 C-176.05357892 358.24934914 -171.20393942 344.01618849 -166.33056641 329.79125977 C-161.16859718 314.72166323 -156.05636283 299.63534804 -150.95032501 284.54673386 C-148.90221642 278.49454956 -146.85365108 272.44251989 -144.8046875 266.390625 C-144.58204098 265.7330036 -144.35939445 265.07538219 -144.13000107 264.39783287 C-139.9806876 252.14332119 -135.81452733 239.89459321 -131.640625 227.6484375 C-125.45160275 209.48932433 -119.29191408 191.32035719 -113.140625 173.1484375 C-106.31664808 152.98951148 -99.47837417 132.83556008 -92.61303711 112.69067383 C-88.98211962 102.03497068 -85.35962346 91.3764572 -81.74609375 80.71484375 C-81.11710175 78.85934906 -81.11710175 78.85934906 -80.47540283 76.96636963 C-78.44004086 70.9618317 -76.40555491 64.95699944 -74.37255859 58.95166016 C-72.51515152 53.4674072 -70.65117579 47.98542212 -68.78302002 42.50482178 C-67.99330037 40.18460629 -67.20580459 37.86363311 -66.42010498 35.54205322 C-65.20617822 31.95711512 -63.98470894 28.37482351 -62.76171875 24.79296875 C-62.39256851 23.69772385 -62.02341827 22.60247894 -61.64308167 21.4740448 C-61.29349899 20.4549855 -60.94391632 19.43592621 -60.58374023 18.38598633 C-60.1282505 17.04616447 -60.1282505 17.04616447 -59.66355896 15.67927551 C-58.55995843 12.94886057 -57.31694743 10.57074102 -55.640625 8.1484375 C-54.980625 8.1484375 -54.320625 8.1484375 -53.640625 8.1484375 C-53.640625 7.4884375 -53.640625 6.8284375 -53.640625 6.1484375 C-52.980625 6.1484375 -52.320625 6.1484375 -51.640625 6.1484375 C-51.640625 5.4884375 -51.640625 4.8284375 -51.640625 4.1484375 C-50.980625 4.1484375 -50.320625 4.1484375 -49.640625 4.1484375 C-49.640625 3.4884375 -49.640625 2.8284375 -49.640625 2.1484375 C-33.62273288 -9.93062869 -17.55657035 -6.15450537 0 0 Z M3.359375 46.1484375 C-5.53992875 72.26745658 -14.42363729 98.39171267 -23.2862854 124.52319336 C-28.89741471 141.06732161 -34.51502743 157.60922351 -40.140625 174.1484375 C-46.10611273 191.68767958 -52.06402826 209.22947683 -58.015625 226.7734375 C-58.41038025 227.93707825 -58.8051355 229.10071899 -59.21185303 230.29962158 C-62.02167686 238.58248113 -64.8311864 246.86544728 -67.640625 255.1484375 C-77.50456423 284.23001708 -87.37202705 313.31037443 -97.26000977 342.38378906 C-102.7452436 358.51224766 -108.22518895 374.64249896 -113.703125 390.7734375 C-114.105242 391.95755219 -114.50735901 393.14166687 -114.92166138 394.36166382 C-117.16143437 400.95721483 -119.40109794 407.55280298 -121.640625 414.1484375 C-119.56041288 416.22864962 -118.52695062 416.68870751 -115.80761719 417.6027832 C-115.00436508 417.87604431 -114.20111298 418.14930542 -113.3735199 418.43084717 C-112.48713333 418.72565979 -111.60074677 419.02047241 -110.6875 419.32421875 C-109.74991348 419.64134827 -108.81232697 419.95847778 -107.84632874 420.28521729 C-104.69625065 421.3492823 -101.54343322 422.40499198 -98.390625 423.4609375 C-96.15433947 424.21481582 -93.9182598 424.96930504 -91.68237305 425.72436523 C-86.87105739 427.34834644 -82.05869735 428.96918154 -77.24560547 430.58789062 C-69.55234694 433.17642512 -61.86345985 435.77775941 -54.17578125 438.3828125 C-53.20852741 438.71056136 -53.20852741 438.71056136 -52.22173309 439.04493141 C-49.6057874 439.93136228 -46.98986134 440.81785103 -44.37397766 441.70446491 C-39.74067064 443.27482248 -35.10699739 444.84409572 -30.47314453 446.4128418 C-14.8991504 451.68557375 0.67060496 456.97059109 16.234375 462.2734375 C33.0845131 468.01450726 49.93898642 473.74266375 66.796875 479.4609375 C67.96637695 479.85764648 69.13587891 480.25435547 70.34082031 480.66308594 C77.48569786 483.08664413 84.6306835 485.50988354 91.7756958 487.93304443 C102.42876244 491.5459971 113.08163195 495.15953085 123.734375 498.7734375 C125.48015335 499.36567612 125.48015335 499.36567612 127.26119995 499.96987915 C144.65145035 505.86961736 162.03888166 511.77760481 179.42449951 517.690979 C194.88323207 522.94882335 210.34462536 528.19878086 225.80773926 533.44372559 C235.1626425 536.61690105 244.51725116 539.79094493 253.87182617 542.96508789 C256.20465702 543.75663365 258.53750217 544.54813728 260.87036133 545.33959961 C267.71278661 547.66106019 274.55487413 549.9835115 281.39648438 552.30737305 C283.49337695 553.0194561 285.59037727 553.73122198 287.6875 554.44262695 C290.60447132 555.43221138 293.52109896 556.42279873 296.4375 557.4140625 C297.3510022 557.7244043 298.26450439 558.03474609 299.20568848 558.35449219 C303.86137712 559.94064951 308.50870953 561.54769714 313.14648438 563.18554688 C314.0732196 563.51262634 314.99995483 563.83970581 315.95477295 564.17669678 C317.71466319 564.79956297 319.47354909 565.42527652 321.23126221 566.05426025 C325.19668522 567.58412449 325.19668522 567.58412449 329.359375 568.1484375 C338.25936338 542.02740906 347.14395068 515.90120869 356.00704956 489.76763916 C361.57500701 473.35023876 367.15074221 456.93551275 372.734375 440.5234375 C379.14680978 421.67488061 385.53777825 402.8191052 391.921875 383.9609375 C398.41280456 364.78719328 404.91546254 345.61753156 411.44415283 326.456604 C416.90793438 310.42074016 422.35572643 294.37949468 427.796875 278.3359375 C436.63757231 252.26885323 445.49484925 226.20742728 454.359375 200.1484375 C452.130875 197.9199375 450.74341339 197.43999707 447.78515625 196.44702148 C446.34269531 195.95793556 446.34269531 195.95793556 444.87109375 195.45896912 C443.81535156 195.10770462 442.75960937 194.75644012 441.671875 194.39453125 C440.5684375 194.02211807 439.465 193.6497049 438.328125 193.26600647 C434.67367147 192.03390825 431.01651882 190.81002478 427.359375 189.5859375 C424.80032854 188.72530018 422.24193197 187.86274006 419.68359375 187 C415.09308854 185.45246106 410.50201184 183.90664325 405.91014099 182.36316109 C395.39000839 178.82656541 384.88200938 175.25464008 374.37615967 171.6758728 C369.25919256 169.93317214 364.14131158 168.19315998 359.0234375 166.453125 C357.48231796 165.92911354 357.48231796 165.92911354 355.9100647 165.39451599 C343.51996228 161.18220394 331.12724978 156.9775847 318.734375 152.7734375 C317.57073425 152.37868225 316.40709351 151.983927 315.20819092 151.57720947 C306.92533137 148.76738564 298.64236522 145.9578761 290.359375 143.1484375 C280.90096869 139.94031929 271.44260918 136.73206318 261.984375 133.5234375 C260.23818878 132.93106293 260.23818878 132.93106293 258.45672607 132.32672119 C241.06675066 126.42707359 223.67959425 120.51917696 206.29425049 114.605896 C188.46312561 108.54115047 170.6280835 102.48799792 152.79180908 96.43841553 C140.48745297 92.26501435 128.1835071 88.09043287 115.8828125 83.90625 C114.3716259 83.39220863 114.3716259 83.39220863 112.82991028 82.86778259 C108.79970845 81.49678594 104.76953937 80.12569317 100.73947144 78.75430298 C88.49002609 74.5862401 76.23730417 70.42799393 63.98020172 66.28250885 C61.84644367 65.56082598 59.71273507 64.83899708 57.57904053 64.11712646 C51.32379013 62.00094021 45.06840317 59.88516714 38.81200314 57.77238178 C36.85712408 57.11201179 34.902438 56.45107414 32.9478302 55.78990173 C30.55956447 54.98207693 28.170988 54.17516995 25.7820282 53.36940002 C19.65366208 51.29494534 13.56394498 49.14766299 7.50816345 46.86921692 C5.42108945 46.04243059 5.42108945 46.04243059 3.359375 46.1484375 Z M-90.640625 200.1484375 C-90.640625 200.8084375 -90.640625 201.4684375 -90.640625 202.1484375 C-91.300625 202.1484375 -91.960625 202.1484375 -92.640625 202.1484375 C-92.96024009 205.75692492 -92.96024009 205.75692492 -91.390625 208.8984375 C-89.33753655 210.36492925 -88.18277492 211.07140265 -85.640625 211.1484375 C-83.31534349 209.3546489 -81.95278242 207.77275233 -80.640625 205.1484375 C-80.43151515 202.92648362 -80.43151515 202.92648362 -82.453125 200.8984375 C-85.51409864 198.44965859 -87.04533735 199.18969413 -90.640625 200.1484375 Z M-100.453125 229.2109375 C-102.86319978 230.95260315 -102.86319978 230.95260315 -103.140625 233.6484375 C-102.78684221 236.12522263 -102.78684221 236.12522263 -101.578125 237.9609375 C-98.64793749 239.75685887 -95.9933297 239.33821324 -92.640625 239.1484375 C-91.40666459 237.4342086 -91.40666459 237.4342086 -90.640625 235.1484375 C-91.36221943 231.78099682 -92.04817161 230.53273159 -94.953125 228.6484375 C-97.70705206 227.89577505 -97.70705206 227.89577505 -100.453125 229.2109375 Z M427.359375 365.1484375 C425.00894255 372.15344417 422.66172971 379.15952076 420.31864929 386.16699028 C419.23062383 389.42061865 418.14148253 392.67386463 417.04980469 395.92626953 C415.79552041 399.66328419 414.54606467 403.4019041 413.296875 407.140625 C412.90314697 408.31148651 412.50941895 409.48234802 412.10375977 410.68869019 C411.56319946 412.3101445 411.56319946 412.3101445 411.01171875 413.96435547 C410.69195068 414.91921844 410.37218262 415.87408142 410.04272461 416.85787964 C409.26408092 419.06947269 409.26408092 419.06947269 409.359375 421.1484375 C410.60600831 421.65677341 411.85686887 422.15474895 413.109375 422.6484375 C413.80546875 422.926875 414.5015625 423.2053125 415.21875 423.4921875 C417.62360195 424.34384077 417.62360195 424.34384077 421.359375 424.1484375 C423.71166459 417.29174235 426.05902655 410.43338149 428.40010071 403.57284832 C429.48729353 400.38732951 430.57617941 397.20241058 431.66894531 394.01879883 C432.92420973 390.35903413 434.17361843 386.69731613 435.421875 383.03515625 C435.81560303 381.8913298 436.20933105 380.74750336 436.61499023 379.5690155 C436.97536377 378.50814224 437.3357373 377.44726898 437.70703125 376.35424805 C438.02679932 375.41937057 438.34656738 374.4844931 438.67602539 373.52128601 C439.49774484 371.07951282 439.49774484 371.07951282 439.359375 368.1484375 C437.92383475 367.64283842 436.4858548 367.1441626 435.046875 366.6484375 C434.24636719 366.37 433.44585938 366.0915625 432.62109375 365.8046875 C430.27168078 365.00910643 430.27168078 365.00910643 427.359375 365.1484375 Z " fill="#0A3045" transform="translate(222.640625,81.8515625)"/>
</svg>
